{
  "accessors": [
    {
      "bufferView": 2,
      "componentType": 5126,
      "count": 65533,
      "max": [
        2.4288411140441895,
        4.458155155181885,
        2.453197956085205
      ],
      "min": [
        -2.3744289875030518,
        -5.258588790893555,
        0.07349800318479538
      ],
      "type": "VEC3"
    },
    {
      "bufferView": 2,
      "byteOffset": 786396,
      "componentType": 5126,
      "count": 65533,
      "max": [
        1.0,
        1.0,
        1.0
      ],
      "min": [
        -1.0,
        -1.0,
        -1.0
      ],
      "type": "VEC3"
    },
    {
      "bufferView": 3,
      "componentType": 5126,
      "count": 65533,
      "max": [
        1.0,
        1.0,
        1.0,
        1.0
      ],
      "min": [
        -1.0,
        -1.0,
        -1.0,
        -1.0
      ],
      "type": "VEC4"
    },
    {
      "bufferView": 1,
      "componentType": 5126,
      "count": 65533,
      "max": [
        0.9980469942092896,
        0.9970700144767761
      ],
      "min": [
        0.0,
        -4.148437976837158
      ],
      "type": "VEC2"
    },
    {
      "bufferView": 0,
      "componentType": 5125,
      "count": 159234,
      "type": "SCALAR"
    },
    {
      "bufferView": 2,
      "byteOffset": 1572792,
      "componentType": 5126,
      "count": 1858,
      "max": [
        1.624987006187439,
        0.3300060033798218,
        1.0399789810180664
      ],
      "min": [
        0.9190019965171814,
        -2.9336719512939453,
        0.07349900156259537
      ],
      "type": "VEC3"
    },
    {
      "bufferView": 2,
      "byteOffset": 1595088,
      "componentType": 5126,
      "count": 1858,
      "max": [
        1.0,
        1.0,
        1.0
      ],
      "min": [
        -1.0,
        -1.0,
        -1.0
      ],
      "type": "VEC3"
    },
    {
      "bufferView": 3,
      "byteOffset": 1048528,
      "componentType": 5126,
      "count": 1858,
      "max": [
        1.0,
        1.0,
        1.0,
        1.0
      ],
      "min": [
        -1.0,
        -0.9997465014457703,
        -0.9981562495231628,
        -1.0
      ],
      "type": "VEC4"
    },
    {
      "bufferView": 1,
      "byteOffset": 524264,
      "componentType": 5126,
      "count": 1858,
      "max": [
        0.9956049919128418,
        0.9736329913139343
      ],
      "min": [
        0.001961000030860305,
        0.04702800139784813
      ],
      "type": "VEC2"
    },
    {
      "bufferView": 0,
      "byteOffset": 636936,
      "componentType": 5125,
      "count": 5004,
      "type": "SCALAR"
    },
    {
      "bufferView": 2,
      "byteOffset": 1617384,
      "componentType": 5126,
      "count": 17383,
      "max": [
        1.5913100242614746,
        3.7158188819885254,
        4.282289028167725
      ],
      "min": [
        -1.7295509576797485,
        -0.6760110259056091,
        2.2875020503997803
      ],
      "type": "VEC3"
    },
    {
      "bufferView": 2,
      "byteOffset": 1825980,
      "componentType": 5126,
      "count": 17383,
      "max": [
        1.0,
        1.0,
        1.0
      ],
      "min": [
        -1.0,
        -1.0,
        -1.0
      ],
      "type": "VEC3"
    },
    {
      "bufferView": 3,
      "byteOffset": 1078256,
      "componentType": 5126,
      "count": 17383,
      "max": [
        1.0,
        1.0,
        1.0,
        1.0
      ],
      "min": [
        -1.0,
        -1.0,
        -1.0,
        -1.0
      ],
      "type": "VEC4"
    },
    {
      "bufferView": 1,
      "byteOffset": 539128,
      "componentType": 5126,
      "count": 17383,
      "max": [
        0.9980469942092896,
        0.9970700144767761
      ],
      "min": [
        0.0019509999547153711,
        0.0013040000339969993
      ],
      "type": "VEC2"
    },
    {
      "bufferView": 0,
      "byteOffset": 656952,
      "componentType": 5125,
      "count": 54465,
      "type": "SCALAR"
    },
    {
      "bufferView": 2,
      "byteOffset": 2034576,
      "componentType": 5126,
      "count": 4200,
      "max": [
        1.7078160047531128,
        3.5366179943084717,
        1.3724910020828247
      ],
      "min": [
        -1.653404951095581,
        -3.594444990158081,
        0.02873699925839901
      ],
      "type": "VEC3"
    },
    {
      "bufferView": 2,
      "byteOffset": 2084976,
      "componentType": 5126,
      "count": 4200,
      "max": [
        1.0,
        0.9946713447570801,
        1.0
      ],
      "min": [
        -1.0,
        -0.9917093515396118,
        -1.0
      ],
      "type": "VEC3"
    },
    {
      "bufferView": 3,
      "byteOffset": 1356384,
      "componentType": 5126,
      "count": 4200,
      "max": [
        1.0,
        0.9970771074295044,
        1.0,
        1.0
      ],
      "min": [
        -1.0,
        -0.9970202445983887,
        -1.0,
        -1.0
      ],
      "type": "VEC4"
    },
    {
      "bufferView": 1,
      "byteOffset": 678192,
      "componentType": 5126,
      "count": 4200,
      "max": [
        0.9960939884185791,
        1.0
      ],
      "min": [
        0.0035019998904317617,
        -0.010269000194966793
      ],
      "type": "VEC2"
    },
    {
      "bufferView": 0,
      "byteOffset": 874812,
      "componentType": 5125,
      "count": 9600,
      "type": "SCALAR"
    }
  ],
  "asset": {
    "extras": {
      "author": "xlisov (https://sketchfab.com/xlisov74)",
      "license": "CC-BY-NC-4.0 (http://creativecommons.org/licenses/by-nc/4.0/)",
      "source": "https://sketchfab.com/3d-models/ba-t-15-barbaris-c43360f75e944070abe8569feae60825",
      "title": "[BA] T-15 Barbaris"
    },
    "generator": "Sketchfab-16.72.0",
    "version": "2.0"
  },
  "bufferViews": [
    {
      "buffer": 0,
      "byteLength": 913212,
      "name": "floatBufferViews",
      "target": 34963
    },
    {
      "buffer": 0,
      "byteLength": 711792,
      "byteOffset": 913212,
      "byteStride": 8,
      "name": "floatBufferViews",
      "target": 34962
    },
    {
      "buffer": 0,
      "byteLength": 2135376,
      "byteOffset": 1625004,
      "byteStride": 12,
      "name": "floatBufferViews",
      "target": 34962
    },
    {
      "buffer": 0,
      "byteLength": 1423584,
      "byteOffset": 3760380,
      "byteStride": 16,
      "name": "floatBufferViews",
      "target": 34962
    }
  ],
  "buffers": [
    {
      "byteLength": 5183964,
      "uri": "scene.bin"
    }
  ],
  "images": [
    {
      "uri": "textures/body_baseColor.png"
    },
    {
      "uri": "textures/body_normal.png"
    },
    {
      "uri": "textures/tracks_baseColor.png"
    },
    {
      "uri": "textures/tracks_normal.png"
    }
  ],
  "materials": [
    {
      "doubleSided": true,
      "name": "body",
      "normalTexture": {
        "index": 1
      },
      "pbrMetallicRoughness": {
        "baseColorTexture": {
          "index": 0
        },
        "metallicFactor": 0.0
      }
    },
    {
      "alphaMode": "BLEND",
      "doubleSided": true,
      "name": "tracks",
      "normalTexture": {
        "index": 3
      },
      "pbrMetallicRoughness": {
        "baseColorTexture": {
          "index": 2
        },
        "metallicFactor": 0.0
      }
    }
  ],
  "meshes": [
    {
      "name": "Object_0",
      "primitives": [
        {
          "attributes": {
            "NORMAL": 1,
            "POSITION": 0,
            "TANGENT": 2,
            "TEXCOORD_0": 3
          },
          "indices": 4,
          "material": 0,
          "mode": 4
        }
      ]
    },
    {
      "name": "Object_1",
      "primitives": [
        {
          "attributes": {
            "NORMAL": 6,
            "POSITION": 5,
            "TANGENT": 7,
            "TEXCOORD_0": 8
          },
          "indices": 9,
          "material": 0,
          "mode": 4
        }
      ]
    },
    {
      "name": "Object_2",
      "primitives": [
        {
          "attributes": {
            "NORMAL": 11,
            "POSITION": 10,
            "TANGENT": 12,
            "TEXCOORD_0": 13
          },
          "indices": 14,
          "material": 0,
          "mode": 4
        }
      ]
    },
    {
      "name": "Object_3",
      "primitives": [
        {
          "attributes": {
            "NORMAL": 16,
            "POSITION": 15,
            "TANGENT": 17,
            "TEXCOORD_0": 18
          },
          "indices": 19,
          "material": 1,
          "mode": 4
        }
      ]
    }
  ],
  "nodes": [
    {
      "children": [
        1
      ],
      "matrix": [
        1.0,
        0.0,
        0.0,
        0.0,
        0.0,
        2.220446049250313e-16,
        -1.0,
        0.0,
        0.0,
        1.0,
        2.220446049250313e-16,
        0.0,
        0.0,
        0.0,
        0.0,
        1.0
      ],
      "name": "Sketchfab_model"
    },
    {
      "children": [
        2,
        3,
        4,
        5
      ],
      "name": "t15_30mm.obj.cleaner.materialmerger.gles"
    },
    {
      "mesh": 0,
      "name": "Object_2"
    },
    {
      "mesh": 1,
      "name": "Object_3"
    },
    {
      "mesh": 2,
      "name": "Object_4"
    },
    {
      "mesh": 3,
      "name": "Object_5"
    }
  ],
  "samplers": [
    {
      "magFilter": 9729,
      "minFilter": 9987,
      "wrapS": 10497,
      "wrapT": 10497
    }
  ],
  "scene": 0,
  "scenes": [
    {
      "name": "Sketchfab_Scene",
      "nodes": [
        0
      ]
    }
  ],
  "textures": [
    {
      "sampler": 0,
      "source": 0
    },
    {
      "sampler": 0,
      "source": 1
    },
    {
      "sampler": 0,
      "source": 2
    },
    {
      "sampler": 0,
      "source": 3
    }
  ]
}
