{
  "accessors": [
    {
      "bufferView": 2,
      "componentType": 5126,
      "count": 60,
      "max": [
        9.183119773864746,
        9.001740455627441,
        2.900670051574707
      ],
      "min": [
        -9.088939666748047,
        -9.161089897155762,
        -0.0029934600461274385
      ],
      "type": "VEC3"
    },
    {
      "bufferView": 2,
      "byteOffset": 720,
      "componentType": 5126,
      "count": 60,
      "max": [
        0.9927586913108826,
        0.9999769926071167,
        3.02002753317307e-14
      ],
      "min": [
        -0.9982629418373108,
        -0.984523594379425,
        -1.0662888656070863e-14
      ],
      "type": "VEC3"
    },
    {
      "bufferView": 1,
      "componentType": 5126,
      "count": 60,
      "max": [
        0.9992570281028748,
        0.9992830157279968
      ],
      "min": [
        0.0007126330165192485,
        0.0007491110009141266
      ],
      "type": "VEC2"
    },
    {
      "bufferView": 0,
      "componentType": 5125,
      "count": 90,
      "type": "SCALAR"
    },
    {
      "bufferView": 2,
      "byteOffset": 1440,
      "componentType": 5126,
      "count": 7496,
      "max": [
        4.169730186462402,
        6.028500080108643,
        2.700390100479126
      ],
      "min": [
        -4.173920154571533,
        -6.300320148468018,
        -0.0028004099149256945
      ],
      "type": "VEC3"
    },
    {
      "bufferView": 2,
      "byteOffset": 91392,
      "componentType": 5126,
      "count": 7496,
      "max": [
        1.0,
        0.9999679923057556,
        0.9999982118606567
      ],
      "min": [
        -1.0,
        -0.9999685287475586,
        -0.9999995231628418
      ],
      "type": "VEC3"
    },
    {
      "bufferView": 3,
      "componentType": 5126,
      "count": 7496,
      "max": [
        1.0,
        1.0,
        0.9999691843986511,
        1.0
      ],
      "min": [
        -1.0,
        -1.0,
        -0.9999681115150452,
        -1.0
      ],
      "type": "VEC4"
    },
    {
      "bufferView": 1,
      "byteOffset": 480,
      "componentType": 5126,
      "count": 7496,
      "max": [
        0.9956499934196472,
        0.9996790289878845
      ],
      "min": [
        0.0016799999866634607,
        0.0010420100297778845
      ],
      "type": "VEC2"
    },
    {
      "bufferView": 0,
      "byteOffset": 360,
      "componentType": 5125,
      "count": 18744,
      "type": "SCALAR"
    },
    {
      "bufferView": 2,
      "byteOffset": 181344,
      "componentType": 5126,
      "count": 12,
      "max": [
        0.5763829946517944,
        4.204060077667236,
        1.5358200073242188
      ],
      "min": [
        -0.582617998123169,
        0.17056800425052643,
        0.8029230237007141
      ],
      "type": "VEC3"
    },
    {
      "bufferView": 2,
      "byteOffset": 181488,
      "componentType": 5126,
      "count": 12,
      "max": [
        0.000304288201732561,
        0.9986690282821655,
        0.05157848820090294
      ],
      "min": [
        -0.00030660899938084185,
        -0.9986690282821655,
        -0.05157848820090294
      ],
      "type": "VEC3"
    },
    {
      "bufferView": 1,
      "byteOffset": 60448,
      "componentType": 5126,
      "count": 12,
      "max": [
        0.45125898718833923,
        0.4532279968261719
      ],
      "min": [
        0.3403030037879944,
        0.001917000045068562
      ],
      "type": "VEC2"
    },
    {
      "bufferView": 0,
      "byteOffset": 75336,
      "componentType": 5125,
      "count": 18,
      "type": "SCALAR"
    },
    {
      "bufferView": 2,
      "byteOffset": 181632,
      "componentType": 5126,
      "count": 4,
      "max": [
        9.976510047912598,
        9.94871997833252,
        -0.0029925000853836536
      ],
      "min": [
        -10.003399848937988,
        -9.958109855651855,
        -0.0029925000853836536
      ],
      "type": "VEC3"
    },
    {
      "bufferView": 2,
      "byteOffset": 181680,
      "componentType": 5126,
      "count": 4,
      "max": [
        -4.3711398944878965e-08,
        -0.0,
        1.0
      ],
      "min": [
        -4.3711398944878965e-08,
        -0.0,
        1.0
      ],
      "type": "VEC3"
    },
    {
      "bufferView": 3,
      "byteOffset": 119936,
      "componentType": 5126,
      "count": 4,
      "max": [
        1.0,
        0.0,
        4.3711398944878965e-08,
        1.0
      ],
      "min": [
        1.0,
        0.0,
        4.3711398944878965e-08,
        1.0
      ],
      "type": "VEC4"
    },
    {
      "bufferView": 1,
      "byteOffset": 60544,
      "componentType": 5126,
      "count": 4,
      "max": [
        0.9992570281028748,
        0.9992830157279968
      ],
      "min": [
        0.0007126330165192485,
        0.0007491110009141266
      ],
      "type": "VEC2"
    },
    {
      "bufferView": 0,
      "byteOffset": 75408,
      "componentType": 5125,
      "count": 6,
      "type": "SCALAR"
    },
    {
      "bufferView": 2,
      "byteOffset": 181728,
      "componentType": 5126,
      "count": 153,
      "max": [
        0.19513599574565887,
        -1.9636199474334717,
        1.955430030822754
      ],
      "min": [
        -0.19730199873447418,
        -3.3964900970458984,
        1.623710036277771
      ],
      "type": "VEC3"
    },
    {
      "bufferView": 2,
      "byteOffset": 183564,
      "componentType": 5126,
      "count": 153,
      "max": [
        1.0,
        0.2524850070476532,
        0.999810516834259
      ],
      "min": [
        -0.9999998807907104,
        -0.4446386396884918,
        -0.18748055398464203
      ],
      "type": "VEC3"
    },
    {
      "bufferView": 1,
      "byteOffset": 60576,
      "componentType": 5126,
      "count": 153,
      "max": [
        0.523169994354248,
        0.8240159749984741
      ],
      "min": [
        0.44314900040626526,
        0.7310770153999329
      ],
      "type": "VEC2"
    },
    {
      "bufferView": 0,
      "byteOffset": 75432,
      "componentType": 5125,
      "count": 474,
      "type": "SCALAR"
    },
    {
      "bufferView": 2,
      "byteOffset": 185400,
      "componentType": 5126,
      "count": 18,
      "max": [
        6.53564977645874,
        6.741479873657227,
        -2.98022992950564e-08
      ],
      "min": [
        -6.519959926605225,
        -6.80325984954834,
        -2.98022992950564e-08
      ],
      "type": "VEC3"
    },
    {
      "bufferView": 2,
      "byteOffset": 185616,
      "componentType": 5126,
      "count": 18,
      "max": [
        -0.0,
        -0.0,
        1.0
      ],
      "min": [
        -0.0,
        -0.0,
        1.0
      ],
      "type": "VEC3"
    },
    {
      "bufferView": 1,
      "byteOffset": 61800,
      "componentType": 5126,
      "count": 18,
      "max": [
        0.9965429902076721,
        0.9952059984207153
      ],
      "min": [
        0.0017398899653926492,
        0.007542309816926718
      ],
      "type": "VEC2"
    },
    {
      "bufferView": 0,
      "byteOffset": 77328,
      "componentType": 5125,
      "count": 60,
      "type": "SCALAR"
    }
  ],
  "asset": {
    "extras": {
      "author": "ᗩᒪE᙭. Kᗩ.🚗 (https://sketchfab.com/Alex.Ka.)",
      "license": "CC-BY-NC-ND-4.0 (http://creativecommons.org/licenses/by-nc-nd/4.0/)",
      "source": "https://sketchfab.com/3d-models/su-47-berkut-7ca595c78acf4044a730f6f33a041fce",
      "title": "SU-47  Berkut"
    },
    "generator": "Sketchfab-15.37.0",
    "version": "2.0"
  },
  "bufferViews": [
    {
      "buffer": 0,
      "byteLength": 77568,
      "name": "floatBufferViews",
      "target": 34963
    },
    {
      "buffer": 0,
      "byteLength": 61944,
      "byteOffset": 77568,
      "byteStride": 8,
      "name": "floatBufferViews",
      "target": 34962
    },
    {
      "buffer": 0,
      "byteLength": 185832,
      "byteOffset": 139512,
      "byteStride": 12,
      "name": "floatBufferViews",
      "target": 34962
    },
    {
      "buffer": 0,
      "byteLength": 120000,
      "byteOffset": 325344,
      "byteStride": 16,
      "name": "floatBufferViews",
      "target": 34962
    }
  ],
  "buffers": [
    {
      "byteLength": 445344,
      "uri": "scene.bin"
    }
  ],
  "extensionsUsed": [
    "KHR_materials_specular",
    "KHR_materials_clearcoat"
  ],
  "images": [
    {
      "uri": "textures/Smoke_baseColor.png"
    },
    {
      "uri": "textures/Su_47_Berkut_baseColor.jpeg"
    },
    {
      "uri": "textures/Su_47_Berkut_normal.png"
    },
    {
      "uri": "textures/floor_baseColor.png"
    },
    {
      "uri": "textures/floor_normal.png"
    },
    {
      "uri": "textures/glass_baseColor.png"
    },
    {
      "uri": "textures/glass_metallicRoughness.png"
    },
    {
      "uri": "textures/shadow_baseColor.png"
    }
  ],
  "materials": [
    {
      "alphaMode": "BLEND",
      "extensions": {
        "KHR_materials_specular": {
          "specularColorFactor": [
            1.0,
            1.0,
            1.0
          ],
          "specularFactor": 0.0
        }
      },
      "name": "Smoke",
      "pbrMetallicRoughness": {
        "baseColorFactor": [
          0.19991562616092734,
          0.19991562616092734,
          0.19991562616092734,
          1.0
        ],
        "baseColorTexture": {
          "index": 0
        },
        "metallicFactor": 0.0
      }
    },
    {
      "emissiveFactor": [
        0.2,
        0.2,
        0.2
      ],
      "emissiveTexture": {
        "index": 1
      },
      "extensions": {
        "KHR_materials_specular": {
          "specularColorFactor": [
            1.0,
            1.0,
            1.0
          ],
          "specularFactor": 1.0
        }
      },
      "name": "Su_47_Berkut",
      "normalTexture": {
        "index": 2
      },
      "pbrMetallicRoughness": {
        "baseColorFactor": [
          0.5,
          0.5,
          0.5,
          1.0
        ],
        "baseColorTexture": {
          "index": 1
        },
        "roughnessFactor": 0.147
      }
    },
    {
      "extensions": {
        "KHR_materials_specular": {
          "specularColorFactor": [
            1.0,
            1.0,
            1.0
          ],
          "specularFactor": 0.0
        }
      },
      "name": "black_matte",
      "pbrMetallicRoughness": {
        "baseColorFactor": [
          0.0,
          0.0,
          0.0,
          1.0
        ],
        "metallicFactor": 0.0
      }
    },
    {
      "alphaMode": "BLEND",
      "extensions": {
        "KHR_materials_specular": {
          "specularColorFactor": [
            1.0,
            1.0,
            1.0
          ],
          "specularFactor": 1.0
        }
      },
      "name": "floor",
      "normalTexture": {
        "index": 4,
        "scale": 0.247
      },
      "pbrMetallicRoughness": {
        "baseColorFactor": [
          0.447,
          0.447,
          0.447,
          1.0
        ],
        "baseColorTexture": {
          "index": 3
        },
        "roughnessFactor": 0.147
      }
    },
    {
      "alphaMode": "BLEND",
      "doubleSided": true,
      "extensions": {
        "KHR_materials_clearcoat": {
          "clearcoatFactor": 1.0,
          "clearcoatRoughnessFactor": 0.04
        },
        "KHR_materials_specular": {
          "specularColorFactor": [
            1.0,
            1.0,
            1.0
          ],
          "specularFactor": 1.0
        }
      },
      "name": "glass",
      "pbrMetallicRoughness": {
        "baseColorFactor": [
          1.0,
          1.0,
          1.0,
          0.5965986009054446
        ],
        "baseColorTexture": {
          "index": 5
        },
        "metallicRoughnessTexture": {
          "index": 6
        },
        "roughnessFactor": 0.0
      }
    },
    {
      "alphaMode": "BLEND",
      "extensions": {
        "KHR_materials_specular": {
          "specularColorFactor": [
            1.0,
            1.0,
            1.0
          ],
          "specularFactor": 0.0
        }
      },
      "name": "shadow",
      "pbrMetallicRoughness": {
        "baseColorFactor": [
          1.0,
          1.0,
          1.0,
          0.95
        ],
        "baseColorTexture": {
          "index": 7
        },
        "metallicFactor": 0.0
      }
    }
  ],
  "meshes": [
    {
      "name": "Object_0",
      "primitives": [
        {
          "attributes": {
            "NORMAL": 1,
            "POSITION": 0,
            "TEXCOORD_0": 2
          },
          "indices": 3,
          "material": 0,
          "mode": 4
        }
      ]
    },
    {
      "name": "Object_1",
      "primitives": [
        {
          "attributes": {
            "NORMAL": 5,
            "POSITION": 4,
            "TANGENT": 6,
            "TEXCOORD_0": 7
          },
          "indices": 8,
          "material": 1,
          "mode": 4
        }
      ]
    },
    {
      "name": "Object_2",
      "primitives": [
        {
          "attributes": {
            "NORMAL": 10,
            "POSITION": 9,
            "TEXCOORD_0": 11
          },
          "indices": 12,
          "material": 2,
          "mode": 4
        }
      ]
    },
    {
      "name": "Object_3",
      "primitives": [
        {
          "attributes": {
            "NORMAL": 14,
            "POSITION": 13,
            "TANGENT": 15,
            "TEXCOORD_0": 16
          },
          "indices": 17,
          "material": 3,
          "mode": 4
        }
      ]
    },
    {
      "name": "Object_4",
      "primitives": [
        {
          "attributes": {
            "NORMAL": 19,
            "POSITION": 18,
            "TEXCOORD_0": 20
          },
          "indices": 21,
          "material": 4,
          "mode": 4
        }
      ]
    },
    {
      "name": "Object_5",
      "primitives": [
        {
          "attributes": {
            "NORMAL": 23,
            "POSITION": 22,
            "TEXCOORD_0": 24
          },
          "indices": 25,
          "material": 5,
          "mode": 4
        }
      ]
    }
  ],
  "nodes": [
    {
      "children": [
        1
      ],
      "matrix": [
        1.3513513803482056,
        0.0,
        0.0,
        0.0,
        0.0,
        3.00060283364313e-16,
        -1.3513513803482056,
        0.0,
        0.0,
        1.3513513803482056,
        3.00060283364313e-16,
        0.0,
        0.0,
        0.0,
        0.0,
        1.0
      ],
      "name": "Sketchfab_model"
    },
    {
      "children": [
        2,
        3,
        4,
        5,
        6,
        7
      ],
      "name": "Su-47 Berkut.obj.cleaner.materialmerger.gles"
    },
    {
      "mesh": 0,
      "name": "Object_2"
    },
    {
      "mesh": 1,
      "name": "Object_3"
    },
    {
      "mesh": 2,
      "name": "Object_4"
    },
    {
      "mesh": 3,
      "name": "Object_5"
    },
    {
      "mesh": 4,
      "name": "Object_6"
    },
    {
      "mesh": 5,
      "name": "Object_7"
    }
  ],
  "samplers": [
    {
      "magFilter": 9729,
      "minFilter": 9987,
      "wrapS": 10497,
      "wrapT": 10497
    }
  ],
  "scene": 0,
  "scenes": [
    {
      "name": "Sketchfab_Scene",
      "nodes": [
        0
      ]
    }
  ],
  "textures": [
    {
      "sampler": 0,
      "source": 0
    },
    {
      "sampler": 0,
      "source": 1
    },
    {
      "sampler": 0,
      "source": 2
    },
    {
      "sampler": 0,
      "source": 3
    },
    {
      "sampler": 0,
      "source": 4
    },
    {
      "sampler": 0,
      "source": 5
    },
    {
      "sampler": 0,
      "source": 6
    },
    {
      "sampler": 0,
      "source": 7
    }
  ]
}
